<svg width="30" height="20" viewBox="0 0 30 20" fill="none" xmlns="http://www.w3.org/2000/svg">
<path d="M27.5 20H2.5C1.12125 20 0 18.8787 0 17.5V2.5C0 1.12125 1.12125 0 2.5 0H27.5C28.8787 0 30 1.12125 30 2.5V17.5C30 18.8787 28.8787 20 27.5 20ZM2.5 1.25C1.81062 1.25 1.25 1.81062 1.25 2.5V17.5C1.25 18.1894 1.81062 18.75 2.5 18.75H27.5C28.1894 18.75 28.75 18.1894 28.75 17.5V2.5C28.75 1.81062 28.1894 1.25 27.5 1.25H2.5Z" fill="black"/>
<path d="M15 13.2444L4.03562 6.15C3.74562 5.96188 3.6625 5.57563 3.85 5.28563C4.0375 4.99563 4.42437 4.91313 4.71437 5.1L15 11.7556L25.2856 5.1C25.5756 4.91313 25.9625 4.99563 26.15 5.28563C26.3375 5.57563 26.2544 5.96188 25.9644 6.15L15 13.2444Z" fill="black"/>
<path d="M3.75063 16.25C3.54876 16.25 3.35001 16.1525 3.23001 15.9719C3.03813 15.6844 3.11563 15.2969 3.40313 15.105L9.02813 11.355C9.31563 11.1631 9.70376 11.2406 9.89501 11.5281C10.0869 11.8156 10.0094 12.2031 9.72188 12.395L4.09688 16.145C3.99001 16.2156 3.86938 16.25 3.75063 16.25Z" fill="black"/>
<path d="M26.2494 16.25C26.1306 16.25 26.01 16.2156 25.9031 16.145L20.2781 12.395C19.9906 12.2031 19.9131 11.8156 20.105 11.5281C20.2963 11.2406 20.6838 11.1631 20.9719 11.355L26.5969 15.105C26.8844 15.2969 26.9619 15.6844 26.77 15.9719C26.65 16.1525 26.4513 16.25 26.2494 16.25Z" fill="black"/>
</svg>
